<svg xmlns="http://www.w3.org/2000/svg" version="1.1" xmlns:xlink="http://www.w3.org/1999/xlink" xmlns:svgjs="http://svgjs.dev/svgjs" width="1500" height="1518" viewBox="0 0 1500 1518"><g transform="matrix(1,0,0,1,1.325901639344238,0.6145748987853494)"><svg viewBox="0 0 244 247" data-background-color="#ffffff" preserveAspectRatio="xMidYMid meet" height="1518" width="1500" xmlns="http://www.w3.org/2000/svg" xmlns:xlink="http://www.w3.org/1999/xlink"><g id="tight-bounds" transform="matrix(1,0,0,1,-0.21567999999999188,-0.09999999999999432)"><svg viewBox="0 0 244.43135999999998 247.2" height="247.2" width="244.43135999999998"><g><svg></svg></g><g><svg viewBox="0 0 244.43135999999998 247.2" height="247.2" width="244.43135999999998"><g transform="matrix(1,0,0,1,0,65.32640052086381)"><svg viewBox="0 0 244.43135999999998 116.54719895827238" height="116.54719895827238" width="244.43135999999998"><g><svg viewBox="0 0 245.65351679999995 117.12993495306372" height="116.54719895827238" width="244.43135999999998"><g><rect width="245.65351679999995" height="3.587535206567678" x="0" y="64.36946315830808" fill="#61777f" opacity="1" stroke-width="0" stroke="transparent" fill-opacity="1" class="rect-qz-0" data-fill-palette-color="secondary" rx="1%" id="qz-0" data-palette-color="#61777f"></rect></g><g transform="matrix(1,0,0,1,0.6110783999999825,77.34845178520999)"><svg viewBox="0 0 244.43135999999998 39.78148316785372" height="39.78148316785372" width="244.43135999999998"><g id="textblocktransform"><svg viewBox="0 0 244.43135999999998 39.78148316785372" height="39.78148316785372" width="244.43135999999998" id="textblock"><g><svg viewBox="0 0 244.43135999999998 39.78148316785372" height="39.78148316785372" width="244.43135999999998"><g transform="matrix(1,0,0,1,0,0)"><svg width="244.43135999999998" viewBox="7.08 -36.89 229.64 37.38" height="39.78148316785372" data-palette-color="#ffffff"><path d="M27.17-31.03L11.23-31.03 11.23-19.7 25.71-19.7 25.71-16.04 11.23-16.04 11.23 0 7.08 0 7.08-34.69 27.17-34.69 27.17-31.03ZM37.67-24.12L38.43-22.31Q41.48-24.58 45.16-24.58L45.16-24.58Q47.7-24.58 49.78-23.63L49.78-23.63 48.56-20.43Q46.65-21.17 44.6-21.17L44.6-21.17Q41.55-21.17 38.86-19.48L38.86-19.48 38.86 0 34.86 0 34.86-24.12 37.67-24.12ZM64.94-24.58L64.94-24.58Q69.94-24.58 73.18-21.39 76.41-18.19 76.41-12.55L76.41-12.55Q76.41-6.57 73.1-3.04 69.79 0.49 64.55 0.49L64.55 0.49Q59.54 0.49 56.37-2.82 53.19-6.13 53.19-11.79L53.19-11.79Q53.19-17.63 56.43-21.11 59.66-24.58 64.94-24.58ZM64.59-21.17L64.59-21.17Q61.59-21.17 59.35-18.85 57.1-16.53 57.1-12.48L57.1-12.48Q57.1-8.45 59.3-5.69 61.49-2.93 64.99-2.93L64.99-2.93Q68.21-2.93 70.36-5.37 72.5-7.81 72.5-11.74L72.5-11.74Q72.5-13.99 71.81-15.82 71.11-17.65 69.98-18.8 68.84-19.95 67.45-20.56 66.06-21.17 64.59-21.17ZM83.98 0L83.98-24.12 86.78-24.12 87.66-22.07Q92.33-24.61 96.16-24.61L96.16-24.61Q98.14-24.61 99.6-23.99 101.07-23.36 101.87-22.42 102.68-21.48 103.15-20.06 103.63-18.63 103.76-17.33 103.9-16.04 103.9-14.38L103.9-14.38 103.9 0 99.89 0 99.89-14.65Q99.89-21 94.43-21L94.43-21Q91.59-21 87.98-19.12L87.98-19.12 87.98 0 83.98 0ZM124.94-3.15L125.5-0.42Q121.96 0.49 119.99 0.49 118.01 0.49 116.64-0.15 115.27-0.78 114.57-1.95 113.86-3.13 113.55-4.48 113.25-5.83 113.25-7.59L113.25-7.59 113.25-20.97 110-20.97 110-24.12 113.25-24.12 113.25-31.03 117.25-31.03 117.25-24.12 124.6-24.12 124.6-20.97 117.25-20.97 117.25-7.64Q117.25-2.64 121.21-2.64L121.21-2.64Q121.91-2.64 124.94-3.15L124.94-3.15ZM131.48-14.38L131.48-17.77 152.48-17.77 152.48-14.38 131.48-14.38ZM171.52-24.58L171.52-24.58Q173.28-24.58 174.68-24.16 176.08-23.73 177.01-23.07 177.94-22.41 178.61-21.35 179.28-20.29 179.64-19.3 179.99-18.31 180.19-16.92 180.38-15.53 180.43-14.5 180.48-13.48 180.48-12.08L180.48-12.08 180.48-10.18 163.9-10.18Q163.9-8.86 164.5-7.56 165.1-6.25 166.18-5.16 167.27-4.08 169.04-3.39 170.81-2.71 172.96-2.71L172.96-2.71Q175.5-2.71 178.45-3.59L178.45-3.59 179.16-0.85Q175.23 0.49 171.44 0.49L171.44 0.49Q168.78 0.49 166.72-0.22 164.66-0.93 163.4-2.06 162.14-3.2 161.34-4.79 160.53-6.37 160.23-7.95 159.92-9.52 159.92-11.28L159.92-11.28Q159.92-13.99 160.58-16.24 161.24-18.48 162.36-20.01 163.49-21.53 164.99-22.58 166.49-23.63 168.14-24.11 169.78-24.58 171.52-24.58ZM170.66-21.12L170.66-21.12Q168.52-21.12 166.96-19.93 165.41-18.75 164.71-16.99 164-15.23 164-13.21L164-13.21 176.6-13.21Q176.6-21.12 170.66-21.12ZM188.04 0L188.04-24.12 190.85-24.12 191.73-22.07Q196.39-24.61 200.23-24.61L200.23-24.61Q202.2-24.61 203.67-23.99 205.13-23.36 205.94-22.42 206.75-21.48 207.22-20.06 207.7-18.63 207.83-17.33 207.97-16.04 207.97-14.38L207.97-14.38 207.97 0 203.96 0 203.96-14.65Q203.96-21 198.49-21L198.49-21Q195.66-21 192.05-19.12L192.05-19.12 192.05 0 188.04 0ZM215.53-11.65L215.53-11.65Q215.53-14.77 216.41-17.26 217.29-19.75 218.83-21.34 220.37-22.92 222.43-23.77 224.49-24.61 226.88-24.61L226.88-24.61Q229.77-24.61 232.72-23.32L232.72-23.32 232.72-36.89 236.72-36.89 236.72 0 233.94 0 233.28-1.51Q229.89 0.49 226.2 0.49L226.2 0.49Q224.69 0.49 223.25 0.12 221.81-0.24 220.39-1.15 218.97-2.05 217.91-3.41 216.85-4.76 216.19-6.88 215.53-9.01 215.53-11.65ZM227.52-2.81L227.52-2.81Q230.18-2.81 232.72-4.17L232.72-4.17 232.72-20.29Q230.11-21.46 227.47-21.46L227.47-21.46Q226.35-21.46 225.3-21.22 224.25-20.97 223.15-20.34 222.05-19.7 221.26-18.7 220.46-17.7 219.95-16.05 219.44-14.4 219.44-12.28L219.44-12.28Q219.44-10.08 219.98-8.36 220.51-6.64 221.34-5.62 222.17-4.59 223.3-3.93 224.42-3.27 225.44-3.04 226.47-2.81 227.52-2.81Z" opacity="1" transform="matrix(1,0,0,1,0,0)" fill="#ffffff" class="wordmark-text-0" data-fill-palette-color="primary" id="text-0"></path></svg></g></svg></g></svg></g></svg></g><g transform="matrix(1,0,0,1,91.06022294035503,0)"><svg viewBox="0 0 63.53307091928989 54.97800973797385" height="54.97800973797385" width="63.53307091928989"><g><svg xmlns="http://www.w3.org/2000/svg" xmlns:xlink="http://www.w3.org/1999/xlink" version="1.1" x="8" y="0" viewBox="9 1 83 96" enable-background="new 0 0 100 100" xml:space="preserve" height="54.97800973797385" width="47.53307091928989" class="icon-icon-0" data-fill-palette-color="accent" id="icon-0"><g fill="#61777f" data-fill-palette-color="accent"><path fill="#61777f" d="M71.3 10.01C57.831 10.01 50.55 1 50.55 1s-7.306 9.01-20.774 9.01C17.371 10.01 9 2.528 9 2.528v48.928C9.378 83.682 50.5 97 50.5 97S92 83.682 92 51.456V2.528C92 2.528 83.703 10.01 71.3 10.01z" data-fill-palette-color="accent"></path></g></svg></g></svg></g><g><rect width="43.76275478035505" height="3.587535206567678" y="50.39047453140617" x="154.59329385964492" fill="#61777f" data-fill-palette-color="secondary"></rect><rect width="43.76275478035505" height="3.587535206567678" y="50.39047453140617" x="47.29746815999998" fill="#61777f" data-fill-palette-color="secondary"></rect></g></svg></g></svg></g><path d="M0 59.326L0 1 244.431 1 244.431 59.326 240.862 59.326 240.862 4.57 3.57 4.57 3.57 59.326 0 59.326M0 187.874L0 246.2 244.431 246.2 244.431 187.874 240.862 187.874 240.862 242.63 3.57 242.63 3.57 187.874 0 187.874" fill="#61777f" stroke="transparent" data-fill-palette-color="tertiary"></path></svg></g><defs></defs></svg><rect width="244.43135999999998" height="247.2" fill="none" stroke="none" visibility="hidden"></rect></g></svg></g></svg>